<svg xmlns="http://www.w3.org/2000/svg" width="1200" height="420" viewBox="0 0 1200 420">
  <defs>
    <linearGradient id="bg" x1="0" y1="0" x2="1" y2="1">
      <stop offset="0%" stop-color="#0a0a0e"/>
      <stop offset="60%" stop-color="#171821"/>
      <stop offset="100%" stop-color="#24120c"/>
    </linearGradient>
    <radialGradient id="fire" cx="22%" cy="45%" r="42%">
      <stop offset="0%" stop-color="#ff5a12" stop-opacity=".55"/>
      <stop offset="100%" stop-color="#ff5a12" stop-opacity="0"/>
    </radialGradient>
    <filter id="blur"><feGaussianBlur stdDeviation="35"/></filter>
  </defs>
  <rect x="0" y="0" width="1200" height="420" rx="80" fill="url(#bg)"/>
  <ellipse cx="230" cy="190" rx="230" ry="220" fill="url(#fire)" filter="url(#blur)"/>
  <rect x="14" y="14" width="1172" height="392" rx="70" fill="none" stroke="#ff6918" stroke-width="6" opacity=".85"/>
  <path d="M185 86 L238 168 L222 248 L189 309 L132 240 L154 174 Z" fill="#f54816"/>
  <path d="M188 149 L213 192 L201 250 L177 278 L162 229 L176 201 Z" fill="#ffb138"/>
  <path d="M120 295 L252 110" stroke="#ffe8ba" stroke-width="10" stroke-linecap="round"/>
  <path d="M120 295 L252 110" stroke="#ff6b18" stroke-width="4" stroke-linecap="round"/>
  <text x="360" y="185" font-family="Segoe UI, Arial, sans-serif" font-size="135" font-weight="800" fill="#ffefd2">NSE</text>
  <text x="366" y="263" font-family="Segoe UI, Arial, sans-serif" font-size="42" font-weight="700" fill="#ff8d2b">Neck Switch Engage</text>
  <text x="368" y="318" font-family="Segoe UI, Arial, sans-serif" font-size="30" fill="#d2d2d7">Kill extra screens. Launch smoother.</text>
  <text x="900" y="375" font-family="Segoe UI, Arial, sans-serif" font-size="24" fill="#8c8c96">Copyright © 2026</text>
</svg>
